<svg xmlns="http://www.w3.org/2000/svg" width="163.67938232421875" height="243.28863525390625" viewBox="-1.3694801330566406 -20.66082191467285 163.67938232421875 243.28863525390625"><title>Neo4j Graph Visualization</title><desc>Created using Neo4j (http://www.neo4j.com/)</desc><g class="layer relationships"><g class="relationship" transform="translate(133.30991085915764 8.339178011604341) rotate(521.9969170283787)"><path class="outline" fill="#A5ABB6" stroke="none" d="M 21.40063509461097,12.933012701892217 L 21.90063509461097,12.06698729810778 A 59.94119536340896 59.94119536340896 0 0 0 23.47125234897096,12.942637715535533 L 22.997454983817292,13.82327161039391 A 60.94119536340896 60.94119536340896 0 0 1 21.40063509461097,12.933012701892217 Z M 77.38397685889076,15.500125987850957 L 76.96533157419564,14.591976151313759 A 59.94119536340896 59.94119536340896 0 0 0 78.5869106561307,13.814748067502322 L 77.24981630635115,11.129198086625477 L 85.07604300313993,11.142452914829532 L 80.36970312250342,17.395481375338115 L 79.03260877272388,14.709931394461272 A 60.94119536340896 60.94119536340896 0 0 1 77.38397685889076,15.500125987850957"/><text text-anchor="middle" pointer-events="none" font-size="8px" fill="#000000" x="50.00858481619635" y="23.568876827193748" transform="rotate(180 50.00858481619635 20.568876827193748)" font-family="sans-serif">PublicTrans…</text></g><g class="relationship" transform="translate(31.11532424667728 41.55029157649172) rotate(451.8721114940486)"><path class="outline" fill="#A5ABB6" stroke="none" d="M 25 0.5 L 40.167551354728374 0.5 L 40.167551354728374 -0.5 L 25 -0.5 Z M 59.503488854728374 0.5 L 74.67104020945675 0.5 L 74.67104020945675 3.5 L 81.67104020945675 0 L 74.67104020945675 -3.5 L 74.67104020945675 -0.5 L 59.503488854728374 -0.5 Z"/><text text-anchor="middle" pointer-events="none" font-size="8px" fill="#000000" x="49.835520104728374" y="3" transform="rotate(180 49.835520104728374 0)" font-family="sans-serif">trek</text></g><g class="relationship" transform="translate(27.630520479867958 148.16439459328012) rotate(385.05828748182194)"><path class="outline" fill="#A5ABB6" stroke="none" d="M 25 0.5 L 40.50276268744319 0.5 L 40.50276268744319 -0.5 L 25 -0.5 Z M 59.83870018744319 0.5 L 75.34146287488637 0.5 L 75.34146287488637 3.5 L 82.34146287488637 0 L 75.34146287488637 -3.5 L 75.34146287488637 -0.5 L 59.83870018744319 -0.5 Z"/><text text-anchor="middle" pointer-events="none" font-size="8px" fill="#000000" x="50.17073143744319" y="3" font-family="sans-serif">trek</text></g><g class="relationship" transform="translate(133.30991085915764 8.339178011604341) rotate(521.9969170283787)"><path class="outline" fill="#A5ABB6" stroke="none" d="M 25 0.5 L 40.559844338556836 0.5 L 40.559844338556836 -0.5 L 25 -0.5 Z M 59.895781838556836 0.5 L 75.45562617711367 0.5 L 75.45562617711367 3.5 L 82.45562617711367 0 L 75.45562617711367 -3.5 L 75.45562617711367 -0.5 L 59.895781838556836 -0.5 Z"/><text text-anchor="middle" pointer-events="none" font-size="8px" fill="#000000" x="50.227813088556836" y="3" transform="rotate(180 50.227813088556836 0)" font-family="sans-serif">trek</text></g><g class="relationship" transform="translate(133.30991085915764 8.339178011604341) rotate(521.9969170283787)"><path class="outline" fill="#A5ABB6" stroke="none" d="M 21.40063509461097,-12.933012701892217 L 21.90063509461097,-12.06698729810778 A 59.94119536340896 59.94119536340896 0 0 1 39.20509431632584,-18.744065883928272 L 38.99378490911102,-19.721485105359143 A 60.94119536340896 60.94119536340896 0 0 0 21.40063509461097,-12.933012701892217 Z M 61.054666998400805,-20.401669927381093 L 60.90397362641619,-19.413089375458334 A 59.94119536340896 59.94119536340896 0 0 1 78.5869106561307,-13.814748067502322 L 77.24981630635115,-11.129198086625477 L 85.07604300313993,-11.142452914829532 L 80.36970312250342,-17.395481375338115 L 79.03260877272388,-14.709931394461272 A 60.94119536340896 60.94119536340896 0 0 0 61.054666998400805,-20.401669927381093"/><text text-anchor="middle" pointer-events="none" font-size="8px" fill="#000000" x="50.008584816196326" y="-17.568876827193748" transform="rotate(180 50.008584816196326 -20.568876827193748)" font-family="sans-serif">road</text></g></g><g class="layer nodes"><g class="node" transform="translate(133.30991085915764,8.339178011604341)"><circle class="outline" cx="0" cy="0" r="25" fill="#F16667" stroke="#eb2728" stroke-width="2px"/><text text-anchor="middle" pointer-events="none" font-family="sans-serif" dy="1.5625" font-size="25" fill="#FFFFFF"/><text text-anchor="middle" pointer-events="none" x="0" y="5" font-size="10px" fill="#FFFFFF" font-family="sans-serif"> Darjeeling</text></g><g class="node" transform="translate(124.86872417071646,193.62780180278946)"><circle class="outline" cx="0" cy="0" r="25" fill="#D9C8AE" stroke="#c0a378" stroke-width="2px"/><text text-anchor="middle" pointer-events="none" font-family="sans-serif" dy="1.5625" font-size="25" fill="#2A2C34"/><text text-anchor="middle" pointer-events="none" x="0" y="5" font-size="10px" fill="#2A2C34" font-family="sans-serif"> Sandak…</text></g><g class="node" transform="translate(31.11532424667728,41.55029157649172)"><circle class="outline" cx="0" cy="0" r="25" fill="#F16667" stroke="#eb2728" stroke-width="2px"/><text text-anchor="middle" pointer-events="none" font-family="sans-serif" dy="1.5625" font-size="25" fill="#FFFFFF"/><text text-anchor="middle" pointer-events="none" x="0" y="5" font-size="10px" fill="#FFFFFF" font-family="sans-serif"> Rimbik</text></g><g class="node" transform="translate(27.630520479867958,148.16439459328012)"><circle class="outline" cx="0" cy="0" r="25" fill="#8DCC93" stroke="#5db665" stroke-width="2px"/><text text-anchor="middle" pointer-events="none" font-family="sans-serif" dy="1.5625" font-size="25" fill="#2A2C34"/><text text-anchor="middle" pointer-events="none" x="0" y="5" font-size="10px" fill="#2A2C34" font-family="sans-serif"> BhikeBh…</text></g></g></svg>