<svg xmlns="http://www.w3.org/2000/svg" width="163.62049865722656" height="243.35665893554688" viewBox="-1.4196949005126953 -20.707687377929688 163.62049865722656 243.35665893554688"><title>Neo4j Graph Visualization</title><desc>Created using Neo4j (http://www.neo4j.com/)</desc><g class="layer relationships"><g class="relationship" transform="translate(133.20081315301772 8.292311643808576) rotate(522.0250374319592)"><path class="outline" fill="#A5ABB6" stroke="none" d="M 21.40063509461097,12.933012701892217 L 21.90063509461097,12.06698729810778 A 59.940009215857096 59.940009215857096 0 0 0 23.470725449353807,12.942353624661656 L 22.99691981227238,13.822983069019422 A 60.940009215857096 60.940009215857096 0 0 1 21.40063509461097,12.933012701892217 Z M 77.38337261683901,15.499852253242281 L 76.96471936682175,14.591706088657524 A 59.940009215857096 59.940009215857096 0 0 0 78.58575553176934,13.814730104696025 L 77.24866285300332,11.129179291847692 L 85.07488954154312,11.142438989716734 L 80.36854577012402,17.395464521827137 L 79.031453091358,14.709913708978803 A 60.940009215857096 60.940009215857096 0 0 1 77.38337261683901,15.499852253242281"/><text text-anchor="middle" pointer-events="none" font-size="8px" fill="#000000" x="50.00800950187384" y="23.568717897458562" transform="rotate(180 50.00800950187384 20.568717897458562)" font-family="sans-serif">PublicTrans…</text></g><g class="relationship" transform="translate(30.991029614580395 41.45291093845172) rotate(451.8323233681077)"><path class="outline" fill="#A5ABB6" stroke="none" d="M 25 0.5 L 40.16690750862792 0.5 L 40.16690750862792 -0.5 L 25 -0.5 Z M 59.50284500862792 0.5 L 74.66975251725584 0.5 L 74.66975251725584 3.5 L 81.66975251725584 0 L 74.66975251725584 -3.5 L 74.66975251725584 -0.5 L 59.50284500862792 -0.5 Z"/><text text-anchor="middle" pointer-events="none" font-size="8px" fill="#000000" x="49.83487625862792" y="3" transform="rotate(180 49.83487625862792 0)" font-family="sans-serif">trek</text></g><g class="relationship" transform="translate(27.580304292332414 148.06812118009026) rotate(385.12843884106076)"><path class="outline" fill="#A5ABB6" stroke="none" d="M 25 0.5 L 40.5008981086332 0.5 L 40.5008981086332 -0.5 L 25 -0.5 Z M 59.8368356086332 0.5 L 75.3377337172664 0.5 L 75.3377337172664 3.5 L 82.3377337172664 0 L 75.3377337172664 -3.5 L 75.3377337172664 -0.5 L 59.8368356086332 -0.5 Z"/><text text-anchor="middle" pointer-events="none" font-size="8px" fill="#000000" x="50.1688668586332" y="3" font-family="sans-serif">trek</text></g><g class="relationship" transform="translate(133.20081315301772 8.292311643808576) rotate(522.0250374319592)"><path class="outline" fill="#A5ABB6" stroke="none" d="M 25 0.5 L 40.5592710743063 0.5 L 40.5592710743063 -0.5 L 25 -0.5 Z M 59.8952085743063 0.5 L 75.4544796486126 0.5 L 75.4544796486126 3.5 L 82.4544796486126 0 L 75.4544796486126 -3.5 L 75.4544796486126 -0.5 L 59.8952085743063 -0.5 Z"/><text text-anchor="middle" pointer-events="none" font-size="8px" fill="#000000" x="50.2272398243063" y="3" transform="rotate(180 50.2272398243063 0)" font-family="sans-serif">trek</text></g><g class="relationship" transform="translate(133.20081315301772 8.292311643808576) rotate(522.0250374319592)"><path class="outline" fill="#A5ABB6" stroke="none" d="M 21.40063509461097,-12.933012701892217 L 21.90063509461097,-12.06698729810778 A 59.940009215857096 59.940009215857096 0 0 1 39.20452429543959,-18.743884550743125 L 38.99321109124093,-19.72130295129189 A 60.940009215857096 60.940009215857096 0 0 0 21.40063509461097,-12.933012701892217 Z M 61.05409172527372,-20.401494598372835 L 60.903395128064396,-19.412914538089638 A 59.940009215857096 59.940009215857096 0 0 1 78.58575553176934,-13.814730104696025 L 77.24866285300332,-11.129179291847692 L 85.07488954154312,-11.142438989716734 L 80.36854577012402,-17.395464521827137 L 79.031453091358,-14.709913708978803 A 60.940009215857096 60.940009215857096 0 0 0 61.05409172527372,-20.401494598372835"/><text text-anchor="middle" pointer-events="none" font-size="8px" fill="#000000" x="50.00800950187384" y="-17.568717897458562" transform="rotate(180 50.00800950187384 -20.568717897458562)" font-family="sans-serif">road</text></g></g><g class="layer nodes"><g class="node" transform="translate(133.20081315301772,8.292311643808576)"><circle class="outline" cx="0" cy="0" r="25" fill="#F16667" stroke="#eb2728" stroke-width="2px"/><text text-anchor="middle" pointer-events="none" font-family="sans-serif" dy="1.5625" font-size="25" fill="#FFFFFF"/><text text-anchor="middle" pointer-events="none" x="0" y="5" font-size="10px" fill="#FFFFFF" font-family="sans-serif"> Darjeeling</text></g><g class="node" transform="translate(124.75939475802372,193.64896645329438)"><circle class="outline" cx="0" cy="0" r="25" fill="#D9C8AE" stroke="#c0a378" stroke-width="2px"/><text text-anchor="middle" pointer-events="none" font-family="sans-serif" dy="1.5625" font-size="25" fill="#2A2C34"/><text text-anchor="middle" pointer-events="none" x="0" y="5" font-size="10px" fill="#2A2C34" font-family="sans-serif"> Sandak…</text></g><g class="node" transform="translate(30.991029614580395,41.45291093845172)"><circle class="outline" cx="0" cy="0" r="25" fill="#F16667" stroke="#eb2728" stroke-width="2px"/><text text-anchor="middle" pointer-events="none" font-family="sans-serif" dy="1.5625" font-size="25" fill="#FFFFFF"/><text text-anchor="middle" pointer-events="none" x="0" y="5" font-size="10px" fill="#FFFFFF" font-family="sans-serif"> Rimbik</text></g><g class="node" transform="translate(27.580304292332414,148.06812118009026)"><circle class="outline" cx="0" cy="0" r="25" fill="#8DCC93" stroke="#5db665" stroke-width="2px"/><text text-anchor="middle" pointer-events="none" font-family="sans-serif" dy="1.5625" font-size="25" fill="#2A2C34"/><text text-anchor="middle" pointer-events="none" x="0" y="5" font-size="10px" fill="#2A2C34" font-family="sans-serif"> BhikeBh…</text></g></g></svg>