<svg xmlns="http://www.w3.org/2000/svg" width="268.7107849121094" height="289.272705078125" viewBox="-30.925296783447266 -40.37984085083008 268.7107849121094 289.272705078125"><title>Neo4j Graph Visualization</title><desc>Created using Neo4j (http://www.neo4j.com/)</desc><g class="layer relationships"><g class="relationship" transform="translate(116.32129876555618 -11.379841251447436) rotate(391.4891981480956)"><path class="outline" fill="#A5ABB6" stroke="none" d="M 25 0.5 L 33.49335159488661 0.5 L 33.49335159488661 -0.5 L 25 -0.5 Z M 67.9386640948866 0.5 L 76.43201568977322 0.5 L 76.43201568977322 3.5 L 83.43201568977322 0 L 76.43201568977322 -3.5 L 76.43201568977322 -0.5 L 67.9386640948866 -0.5 Z"/><text text-anchor="middle" pointer-events="none" font-size="8px" fill="#000000" x="50.71600784488661" y="3" font-family="sans-serif">ORIGIN</text></g><g class="relationship" transform="translate(116.32129876555618 -11.379841251447436) rotate(509.7170123326903)"><path class="outline" fill="#A5ABB6" stroke="none" d="M 25 0.5 L 26.046384009881308 0.5 L 26.046384009881308 -0.5 L 25 -0.5 Z M 74.71825900988131 0.5 L 75.76464301976262 0.5 L 75.76464301976262 3.5 L 82.76464301976262 0 L 75.76464301976262 -3.5 L 75.76464301976262 -0.5 L 74.71825900988131 -0.5 Z"/><text text-anchor="middle" pointer-events="none" font-size="8px" fill="#000000" x="50.38232150988131" y="3" transform="rotate(180 50.38232150988131 0)" font-family="sans-serif">DESTINA…</text></g><g class="relationship" transform="translate(-1.9252972034752738 147.71422448928013) rotate(283.5198281891309)"><path class="outline" fill="#A5ABB6" stroke="none" d="M 25 0.5 L 33.145816725385764 0.5 L 33.145816725385764 -0.5 L 25 -0.5 Z M 67.59112922538577 0.5 L 75.73694595077153 0.5 L 75.73694595077153 3.5 L 82.73694595077153 0 L 75.73694595077153 -3.5 L 75.73694595077153 -0.5 L 67.59112922538577 -0.5 Z"/><text text-anchor="middle" pointer-events="none" font-size="8px" fill="#000000" x="50.368472975385764" y="3" font-family="sans-serif">ORIGIN</text></g><g class="relationship" transform="translate(-1.9252972034752738 147.71422448928013) rotate(401.7511624055246)"><path class="outline" fill="#A5ABB6" stroke="none" d="M 25 0.5 L 26.36062957229273 0.5 L 26.36062957229273 -0.5 L 25 -0.5 Z M 75.03250457229274 0.5 L 76.39313414458546 0.5 L 76.39313414458546 3.5 L 83.39313414458546 0 L 76.39313414458546 -3.5 L 76.39313414458546 -0.5 L 75.03250457229274 -0.5 Z"/><text text-anchor="middle" pointer-events="none" font-size="8px" fill="#000000" x="50.69656707229273" y="3" font-family="sans-serif">DESTINA…</text></g></g><g class="layer nodes"><g class="node" transform="translate(208.78546995648588,45.25830024809041)"><circle class="outline" cx="0" cy="0" r="25" fill="#ECB5C9" stroke="#da7298" stroke-width="2px"/><text text-anchor="middle" pointer-events="none" font-family="sans-serif" dy="1.5625" font-size="25" fill="#2A2C34"/><text text-anchor="middle" pointer-events="none" x="0" y="5" font-size="10px" fill="#2A2C34" font-family="sans-serif"> MSN</text></g><g class="node" transform="translate(78.94073560168351,219.89286584557806)"><circle class="outline" cx="0" cy="0" r="25" fill="#ECB5C9" stroke="#da7298" stroke-width="2px"/><text text-anchor="middle" pointer-events="none" font-family="sans-serif" dy="1.5625" font-size="25" fill="#2A2C34"/><text text-anchor="middle" pointer-events="none" x="0" y="5" font-size="10px" fill="#2A2C34" font-family="sans-serif"> GRR</text></g><g class="node" transform="translate(116.32129876555618,-11.379841251447436)"><circle class="outline" cx="0" cy="0" r="25" fill="#4C8EDA" stroke="#2870c2" stroke-width="2px"/><text text-anchor="middle" pointer-events="none" font-family="sans-serif" dy="1.5625" font-size="25" fill="#FFFFFF"/><text text-anchor="middle" pointer-events="none" x="0" y="5" font-size="10px" fill="#FFFFFF" font-family="sans-serif"> 11/30/20…</text></g><g class="node" transform="translate(23.26164589354751,42.962769032915226)"><circle class="outline" cx="0" cy="0" r="25" fill="#ECB5C9" stroke="#da7298" stroke-width="2px"/><text text-anchor="middle" pointer-events="none" font-family="sans-serif" dy="1.5625" font-size="25" fill="#2A2C34"/><text text-anchor="middle" pointer-events="none" x="0" y="5" font-size="10px" fill="#2A2C34" font-family="sans-serif"> ORD</text></g><g class="node" transform="translate(-1.9252972034752738,147.71422448928013)"><circle class="outline" cx="0" cy="0" r="25" fill="#4C8EDA" stroke="#2870c2" stroke-width="2px"/><text text-anchor="middle" pointer-events="none" font-family="sans-serif" dy="1.5625" font-size="25" fill="#FFFFFF"/><text text-anchor="middle" pointer-events="none" x="0" y="5" font-size="10px" fill="#FFFFFF" font-family="sans-serif"> 11/17/20…</text></g></g></svg>