<svg xmlns="http://www.w3.org/2000/svg" width="670.7342529296875" height="641.2401123046875" viewBox="-260.0240783691406 -224.0570068359375 670.7342529296875 641.2401123046875"><title>Neo4j Graph Visualization</title><desc>Created using Neo4j (http://www.neo4j.com/)</desc><g class="layer relationships"><g class="relationship" transform="translate(224.51211109982836 144.1267738362346) rotate(187.8046116493819)"><path class="outline" fill="#A5ABB6" stroke="none" d="M 25 0.5 L 60.54735410544086 0.5 L 60.54735410544086 -0.5 L 25 -0.5 Z M 94.99266660544086 0.5 L 130.54002071088172 0.5 L 130.54002071088172 3.5 L 137.54002071088172 0 L 130.54002071088172 -3.5 L 130.54002071088172 -0.5 L 94.99266660544086 -0.5 Z"/><text text-anchor="middle" pointer-events="none" font-size="8px" fill="#000000" x="77.77001035544086" y="3" transform="rotate(180 77.77001035544086 0)" font-family="sans-serif">ORIGIN</text></g><g class="relationship" transform="translate(224.51211109982836 144.1267738362346) rotate(368.4276887353139)"><path class="outline" fill="#A5ABB6" stroke="none" d="M 25 0.5 L 46.3632902599354 0.5 L 46.3632902599354 -0.5 L 25 -0.5 Z M 105.5507902599354 0.5 L 126.9140805198708 0.5 L 126.9140805198708 3.5 L 133.9140805198708 0 L 126.9140805198708 -3.5 L 126.9140805198708 -0.5 L 105.5507902599354 -0.5 Z"/><text text-anchor="middle" pointer-events="none" font-size="8px" fill="#000000" x="75.9570402599354" y="3" font-family="sans-serif">DESTINATION</text></g><g class="relationship" transform="translate(208.68747762309613 28.59628245035458) rotate(507.2343010373968)"><path class="outline" fill="#A5ABB6" stroke="none" d="M 25 0.5 L 65.62016777844362 0.5 L 65.62016777844362 -0.5 L 25 -0.5 Z M 100.06548027844362 0.5 L 140.68564805688723 0.5 L 140.68564805688723 3.5 L 147.68564805688723 0 L 140.68564805688723 -3.5 L 140.68564805688723 -0.5 L 100.06548027844362 -0.5 Z"/><text text-anchor="middle" pointer-events="none" font-size="8px" fill="#000000" x="82.84282402844362" y="3" transform="rotate(180 82.84282402844362 0)" font-family="sans-serif">ORIGIN</text></g><g class="relationship" transform="translate(208.68747762309613 28.59628245035458) rotate(351.61044288505866)"><path class="outline" fill="#A5ABB6" stroke="none" d="M 25 0.5 L 37.58009949128119 0.5 L 37.58009949128119 -0.5 L 25 -0.5 Z M 96.76759949128119 0.5 L 109.34769898256238 0.5 L 109.34769898256238 3.5 L 116.34769898256238 0 L 109.34769898256238 -3.5 L 109.34769898256238 -0.5 L 96.76759949128119 -0.5 Z"/><text text-anchor="middle" pointer-events="none" font-size="8px" fill="#000000" x="67.17384949128119" y="3" font-family="sans-serif">DESTINATION</text></g><g class="relationship" transform="translate(214.7504507096562 209.75017498562022) rotate(210.10165429438268)"><path class="outline" fill="#A5ABB6" stroke="none" d="M 25 0.5 L 66.70439203885975 0.5 L 66.70439203885975 -0.5 L 25 -0.5 Z M 101.14970453885975 0.5 L 142.8540965777195 0.5 L 142.8540965777195 3.5 L 149.8540965777195 0 L 142.8540965777195 -3.5 L 142.8540965777195 -0.5 L 101.14970453885975 -0.5 Z"/><text text-anchor="middle" pointer-events="none" font-size="8px" fill="#000000" x="83.92704828885975" y="3" transform="rotate(180 83.92704828885975 0)" font-family="sans-serif">ORIGIN</text></g><g class="relationship" transform="translate(214.7504507096562 209.75017498562022) rotate(430.1968508213254)"><path class="outline" fill="#A5ABB6" stroke="none" d="M 25 0.5 L 35.499690176931196 0.5 L 35.499690176931196 -0.5 L 25 -0.5 Z M 94.6871901769312 0.5 L 105.18688035386239 0.5 L 105.18688035386239 3.5 L 112.18688035386239 0 L 105.18688035386239 -3.5 L 105.18688035386239 -0.5 L 94.6871901769312 -0.5 Z"/><text text-anchor="middle" pointer-events="none" font-size="8px" fill="#000000" x="65.0934401769312" y="3" font-family="sans-serif">DESTINATION</text></g><g class="relationship" transform="translate(-14.971530667633845 -61.381880662998334) rotate(426.84533112998656)"><path class="outline" fill="#A5ABB6" stroke="none" d="M 25 0.5 L 79.03107345144244 0.5 L 79.03107345144244 -0.5 L 25 -0.5 Z M 113.47638595144244 0.5 L 167.50745940288488 0.5 L 167.50745940288488 3.5 L 174.50745940288488 0 L 167.50745940288488 -3.5 L 167.50745940288488 -0.5 L 113.47638595144244 -0.5 Z"/><text text-anchor="middle" pointer-events="none" font-size="8px" fill="#000000" x="96.25372970144244" y="3" font-family="sans-serif">ORIGIN</text></g><g class="relationship" transform="translate(-14.971530667633845 -61.381880662998334) rotate(194.6365018556799)"><path class="outline" fill="#A5ABB6" stroke="none" d="M 25 0.5 L 27.124653420419236 0.5 L 27.124653420419236 -0.5 L 25 -0.5 Z M 75.79652842041924 0.5 L 77.92118184083847 0.5 L 77.92118184083847 3.5 L 84.92118184083847 0 L 77.92118184083847 -3.5 L 77.92118184083847 -0.5 L 75.79652842041924 -0.5 Z"/><text text-anchor="middle" pointer-events="none" font-size="8px" fill="#000000" x="51.460590920419236" y="3" transform="rotate(180 51.460590920419236 0)" font-family="sans-serif">DESTINA…</text></g><g class="relationship" transform="translate(190.6215877673207 264.4829946544171) rotate(228.2451476016003)"><path class="outline" fill="#A5ABB6" stroke="none" d="M 25 0.5 L 74.73860876971905 0.5 L 74.73860876971905 -0.5 L 25 -0.5 Z M 109.18392126971905 0.5 L 158.9225300394381 0.5 L 158.9225300394381 3.5 L 165.9225300394381 0 L 158.9225300394381 -3.5 L 158.9225300394381 -0.5 L 109.18392126971905 -0.5 Z"/><text text-anchor="middle" pointer-events="none" font-size="8px" fill="#000000" x="91.96126501971905" y="3" transform="rotate(180 91.96126501971905 0)" font-family="sans-serif">ORIGIN</text></g><g class="relationship" transform="translate(190.6215877673207 264.4829946544171) rotate(406.47597654735966)"><path class="outline" fill="#A5ABB6" stroke="none" d="M 25 0.5 L 26.095712664207127 0.5 L 26.095712664207127 -0.5 L 25 -0.5 Z M 69.43165016420713 0.5 L 70.52736282841425 0.5 L 70.52736282841425 3.5 L 77.52736282841425 0 L 70.52736282841425 -3.5 L 70.52736282841425 -0.5 L 69.43165016420713 -0.5 Z"/><text text-anchor="middle" pointer-events="none" font-size="8px" fill="#000000" x="47.76368141420713" y="3" font-family="sans-serif">DESTIN…</text></g><g class="relationship" transform="translate(229.96043664267424 84.34409177656418) rotate(527.2371295077014)"><path class="outline" fill="#A5ABB6" stroke="none" d="M 25 0.5 L 64.62747535095203 0.5 L 64.62747535095203 -0.5 L 25 -0.5 Z M 99.07278785095203 0.5 L 138.70026320190405 0.5 L 138.70026320190405 3.5 L 145.70026320190405 0 L 138.70026320190405 -3.5 L 138.70026320190405 -0.5 L 99.07278785095203 -0.5 Z"/><text text-anchor="middle" pointer-events="none" font-size="8px" fill="#000000" x="81.85013160095203" y="3" transform="rotate(180 81.85013160095203 0)" font-family="sans-serif">ORIGIN</text></g><g class="relationship" transform="translate(229.96043664267424 84.34409177656418) rotate(327.21273146865065)"><path class="outline" fill="#A5ABB6" stroke="none" d="M 25 0.5 L 37.421302919457744 0.5 L 37.421302919457744 -0.5 L 25 -0.5 Z M 96.60880291945774 0.5 L 109.03010583891549 0.5 L 109.03010583891549 3.5 L 116.03010583891549 0 L 109.03010583891549 -3.5 L 109.03010583891549 -0.5 L 96.60880291945774 -0.5 Z"/><text text-anchor="middle" pointer-events="none" font-size="8px" fill="#000000" x="67.01505291945774" y="3" font-family="sans-serif">DESTINATION</text></g><g class="relationship" transform="translate(0.26801459937424765 12.231218985114584) rotate(420.0770877352673)"><path class="outline" fill="#A5ABB6" stroke="none" d="M 25 0.5 L 42.634744717684924 0.5 L 42.634744717684924 -0.5 L 25 -0.5 Z M 77.08005721768492 0.5 L 94.71480193536985 0.5 L 94.71480193536985 3.5 L 101.71480193536985 0 L 94.71480193536985 -3.5 L 94.71480193536985 -0.5 L 77.08005721768492 -0.5 Z"/><text text-anchor="middle" pointer-events="none" font-size="8px" fill="#000000" x="59.857400967684924" y="3" font-family="sans-serif">ORIGIN</text></g><g class="relationship" transform="translate(0.26801459937424765 12.231218985114584) rotate(219.8224238196538)"><path class="outline" fill="#A5ABB6" stroke="none" d="M 25 0.5 L 46.06535907263647 0.5 L 46.06535907263647 -0.5 L 25 -0.5 Z M 105.25285907263647 0.5 L 126.31821814527294 0.5 L 126.31821814527294 3.5 L 133.31821814527294 0 L 126.31821814527294 -3.5 L 126.31821814527294 -0.5 L 105.25285907263647 -0.5 Z"/><text text-anchor="middle" pointer-events="none" font-size="8px" fill="#000000" x="75.65910907263647" y="3" transform="rotate(180 75.65910907263647 0)" font-family="sans-serif">DESTINATION</text></g><g class="relationship" transform="translate(-100.12677888649415 77.25145322696) rotate(375.3149943368884)"><path class="outline" fill="#A5ABB6" stroke="none" d="M 25 0.5 L 64.09148119026014 0.5 L 64.09148119026014 -0.5 L 25 -0.5 Z M 98.53679369026014 0.5 L 137.62827488052028 0.5 L 137.62827488052028 3.5 L 144.62827488052028 0 L 137.62827488052028 -3.5 L 137.62827488052028 -0.5 L 98.53679369026014 -0.5 Z"/><text text-anchor="middle" pointer-events="none" font-size="8px" fill="#000000" x="81.31413744026014" y="3" font-family="sans-serif">ORIGIN</text></g><g class="relationship" transform="translate(-100.12677888649415 77.25145322696) rotate(262.740196882045)"><path class="outline" fill="#A5ABB6" stroke="none" d="M 25 0.5 L 50.78309040164051 0.5 L 50.78309040164051 -0.5 L 25 -0.5 Z M 109.97059040164051 0.5 L 135.75368080328101 0.5 L 135.75368080328101 3.5 L 142.75368080328101 0 L 135.75368080328101 -3.5 L 135.75368080328101 -0.5 L 109.97059040164051 -0.5 Z"/><text text-anchor="middle" pointer-events="none" font-size="8px" fill="#000000" x="80.37684040164051" y="3" transform="rotate(180 80.37684040164051 0)" font-family="sans-serif">DESTINATION</text></g><g class="relationship" transform="translate(158.78465876124693 -4.748873201005603) rotate(486.9289437002333)"><path class="outline" fill="#A5ABB6" stroke="none" d="M 25 0.5 L 58.590859147720536 0.5 L 58.590859147720536 -0.5 L 25 -0.5 Z M 93.03617164772054 0.5 L 126.62703079544107 0.5 L 126.62703079544107 3.5 L 133.62703079544107 0 L 126.62703079544107 -3.5 L 126.62703079544107 -0.5 L 93.03617164772054 -0.5 Z"/><text text-anchor="middle" pointer-events="none" font-size="8px" fill="#000000" x="75.81351539772054" y="3" transform="rotate(180 75.81351539772054 0)" font-family="sans-serif">ORIGIN</text></g><g class="relationship" transform="translate(158.78465876124693 -4.748873201005603) rotate(311.71241915327016)"><path class="outline" fill="#A5ABB6" stroke="none" d="M 25 0.5 L 46.739647377512966 0.5 L 46.739647377512966 -0.5 L 25 -0.5 Z M 105.92714737751297 0.5 L 127.66679475502593 0.5 L 127.66679475502593 3.5 L 134.66679475502593 0 L 127.66679475502593 -3.5 L 127.66679475502593 -0.5 L 105.92714737751297 -0.5 Z"/><text text-anchor="middle" pointer-events="none" font-size="8px" fill="#000000" x="76.33339737751297" y="3" font-family="sans-serif">DESTINATION</text></g><g class="relationship" transform="translate(37.91925665568614 -34.24539641450873) rotate(440.71308465381696)"><path class="outline" fill="#A5ABB6" stroke="none" d="M 25 0.5 L 58.46529055275113 0.5 L 58.46529055275113 -0.5 L 25 -0.5 Z M 92.91060305275113 0.5 L 126.37589360550226 0.5 L 126.37589360550226 3.5 L 133.37589360550226 0 L 126.37589360550226 -3.5 L 126.37589360550226 -0.5 L 92.91060305275113 -0.5 Z"/><text text-anchor="middle" pointer-events="none" font-size="8px" fill="#000000" x="75.68794680275113" y="3" font-family="sans-serif">ORIGIN</text></g><g class="relationship" transform="translate(37.91925665568614 -34.24539641450873) rotate(199.02560294488063)"><path class="outline" fill="#A5ABB6" stroke="none" d="M 25 0.5 L 51.12954047543339 0.5 L 51.12954047543339 -0.5 L 25 -0.5 Z M 110.31704047543339 0.5 L 136.44658095086677 0.5 L 136.44658095086677 3.5 L 143.44658095086677 0 L 136.44658095086677 -3.5 L 136.44658095086677 -0.5 L 110.31704047543339 -0.5 Z"/><text text-anchor="middle" pointer-events="none" font-size="8px" fill="#000000" x="80.72329047543339" y="3" transform="rotate(180 80.72329047543339 0)" font-family="sans-serif">DESTINATION</text></g><g class="relationship" transform="translate(-103.19646173053732 17.77384132559782) rotate(392.0324186755423)"><path class="outline" fill="#A5ABB6" stroke="none" d="M 25 0.5 L 77.58140916655286 0.5 L 77.58140916655286 -0.5 L 25 -0.5 Z M 112.02672166655286 0.5 L 164.60813083310572 0.5 L 164.60813083310572 3.5 L 171.60813083310572 0 L 164.60813083310572 -3.5 L 164.60813083310572 -0.5 L 112.02672166655286 -0.5 Z"/><text text-anchor="middle" pointer-events="none" font-size="8px" fill="#000000" x="94.80406541655286" y="3" font-family="sans-serif">ORIGIN</text></g><g class="relationship" transform="translate(-103.19646173053732 17.77384132559782) rotate(260.37756835584133)"><path class="outline" fill="#A5ABB6" stroke="none" d="M 25 0.5 L 26.392644877661972 0.5 L 26.392644877661972 -0.5 L 25 -0.5 Z M 75.06451987766198 0.5 L 76.45716475532394 0.5 L 76.45716475532394 3.5 L 83.45716475532394 0 L 76.45716475532394 -3.5 L 76.45716475532394 -0.5 L 75.06451987766198 -0.5 Z"/><text text-anchor="middle" pointer-events="none" font-size="8px" fill="#000000" x="50.72858237766197" y="3" transform="rotate(180 50.72858237766197 0)" font-family="sans-serif">DESTINA…</text></g><g class="relationship" transform="translate(5.8379045515511985 236.30958735674986) rotate(296.7702118334178)"><path class="outline" fill="#A5ABB6" stroke="none" d="M 25 0.5 L 43.26279037536792 0.5 L 43.26279037536792 -0.5 L 25 -0.5 Z M 77.70810287536793 0.5 L 95.97089325073584 0.5 L 95.97089325073584 3.5 L 102.97089325073584 0 L 95.97089325073584 -3.5 L 95.97089325073584 -0.5 L 77.70810287536793 -0.5 Z"/><text text-anchor="middle" pointer-events="none" font-size="8px" fill="#000000" x="60.48544662536792" y="3" font-family="sans-serif">ORIGIN</text></g><g class="relationship" transform="translate(5.8379045515511985 236.30958735674986) rotate(467.4871495672103)"><path class="outline" fill="#A5ABB6" stroke="none" d="M 25 0.5 L 46.522520649378166 0.5 L 46.522520649378166 -0.5 L 25 -0.5 Z M 105.71002064937817 0.5 L 127.23254129875633 0.5 L 127.23254129875633 3.5 L 134.23254129875633 0 L 127.23254129875633 -3.5 L 127.23254129875633 -0.5 L 105.71002064937817 -0.5 Z"/><text text-anchor="middle" pointer-events="none" font-size="8px" fill="#000000" x="76.11627064937817" y="3" transform="rotate(180 76.11627064937817 0)" font-family="sans-serif">DESTINATION</text></g><g class="relationship" transform="translate(-90.243333588621 172.26982379661763) rotate(341.90961785250886)"><path class="outline" fill="#A5ABB6" stroke="none" d="M 25 0.5 L 60.13482440209971 0.5 L 60.13482440209971 -0.5 L 25 -0.5 Z M 94.58013690209971 0.5 L 129.71496130419942 0.5 L 129.71496130419942 3.5 L 136.71496130419942 0 L 129.71496130419942 -3.5 L 129.71496130419942 -0.5 L 94.58013690209971 -0.5 Z"/><text text-anchor="middle" pointer-events="none" font-size="8px" fill="#000000" x="77.35748065209971" y="3" font-family="sans-serif">ORIGIN</text></g><g class="relationship" transform="translate(-90.243333588621 172.26982379661763) rotate(520.6422133110038)"><path class="outline" fill="#A5ABB6" stroke="none" d="M 25 0.5 L 41.51443820868674 0.5 L 41.51443820868674 -0.5 L 25 -0.5 Z M 100.70193820868674 0.5 L 117.21637641737348 0.5 L 117.21637641737348 3.5 L 124.21637641737348 0 L 117.21637641737348 -3.5 L 117.21637641737348 -0.5 L 100.70193820868674 -0.5 Z"/><text text-anchor="middle" pointer-events="none" font-size="8px" fill="#000000" x="71.10818820868674" y="3" transform="rotate(180 71.10818820868674 0)" font-family="sans-serif">DESTINATION</text></g><g class="relationship" transform="translate(111.08488432947185 -41.23593040456569) rotate(466.25398503730463)"><path class="outline" fill="#A5ABB6" stroke="none" d="M 25 0.5 L 64.32180307546639 0.5 L 64.32180307546639 -0.5 L 25 -0.5 Z M 98.76711557546639 0.5 L 138.08891865093278 0.5 L 138.08891865093278 3.5 L 145.08891865093278 0 L 138.08891865093278 -3.5 L 138.08891865093278 -0.5 L 98.76711557546639 -0.5 Z"/><text text-anchor="middle" pointer-events="none" font-size="8px" fill="#000000" x="81.54445932546639" y="3" transform="rotate(180 81.54445932546639 0)" font-family="sans-serif">ORIGIN</text></g><g class="relationship" transform="translate(111.08488432947185 -41.23593040456569) rotate(281.67523415535226)"><path class="outline" fill="#A5ABB6" stroke="none" d="M 25 0.5 L 45.44165573274107 0.5 L 45.44165573274107 -0.5 L 25 -0.5 Z M 104.62915573274107 0.5 L 125.07081146548214 0.5 L 125.07081146548214 3.5 L 132.07081146548214 0 L 125.07081146548214 -3.5 L 125.07081146548214 -0.5 L 104.62915573274107 -0.5 Z"/><text text-anchor="middle" pointer-events="none" font-size="8px" fill="#000000" x="75.03540573274107" y="3" font-family="sans-serif">DESTINATION</text></g><g class="relationship" transform="translate(-52.741781648645876 -14.888880971311876) rotate(409.67981274113026)"><path class="outline" fill="#A5ABB6" stroke="none" d="M 25 0.5 L 69.0833679616127 0.5 L 69.0833679616127 -0.5 L 25 -0.5 Z M 103.5286804616127 0.5 L 147.6120484232254 0.5 L 147.6120484232254 3.5 L 154.6120484232254 0 L 147.6120484232254 -3.5 L 147.6120484232254 -0.5 L 103.5286804616127 -0.5 Z"/><text text-anchor="middle" pointer-events="none" font-size="8px" fill="#000000" x="86.3060242116127" y="3" font-family="sans-serif">ORIGIN</text></g><g class="relationship" transform="translate(-52.741781648645876 -14.888880971311876) rotate(227.2788442732255)"><path class="outline" fill="#A5ABB6" stroke="none" d="M 25 0.5 L 25.377932765781473 0.5 L 25.377932765781473 -0.5 L 25 -0.5 Z M 68.71387026578148 0.5 L 69.09180303156295 0.5 L 69.09180303156295 3.5 L 76.09180303156295 0 L 69.09180303156295 -3.5 L 69.09180303156295 -0.5 L 68.71387026578148 -0.5 Z"/><text text-anchor="middle" pointer-events="none" font-size="8px" fill="#000000" x="47.04590151578147" y="3" transform="rotate(180 47.04590151578147 0)" font-family="sans-serif">DESTIN…</text></g><g class="relationship" transform="translate(-52.11601381460043 251.58653814937233) rotate(311.7455808260895)"><path class="outline" fill="#A5ABB6" stroke="none" d="M 25 0.5 L 66.08234431072574 0.5 L 66.08234431072574 -0.5 L 25 -0.5 Z M 100.52765681072574 0.5 L 141.6100011214515 0.5 L 141.6100011214515 3.5 L 148.6100011214515 0 L 141.6100011214515 -3.5 L 141.6100011214515 -0.5 L 100.52765681072574 -0.5 Z"/><text text-anchor="middle" pointer-events="none" font-size="8px" fill="#000000" x="83.30500056072574" y="3" font-family="sans-serif">ORIGIN</text></g><g class="relationship" transform="translate(-52.11601381460043 251.58653814937233) rotate(445.76879162287287)"><path class="outline" fill="#A5ABB6" stroke="none" d="M 25 0.5 L 35.391189127533394 0.5 L 35.391189127533394 -0.5 L 25 -0.5 Z M 94.5786891275334 0.5 L 104.96987825506679 0.5 L 104.96987825506679 3.5 L 111.96987825506679 0 L 104.96987825506679 -3.5 L 104.96987825506679 -0.5 L 94.5786891275334 -0.5 Z"/><text text-anchor="middle" pointer-events="none" font-size="8px" fill="#000000" x="64.9849391275334" y="3" font-family="sans-serif">DESTINATION</text></g><g class="relationship" transform="translate(155.162119335183 216.64419218196755) rotate(225.89352969408066)"><path class="outline" fill="#A5ABB6" stroke="none" d="M 25 0.5 L 45.14315678617274 0.5 L 45.14315678617274 -0.5 L 25 -0.5 Z M 79.58846928617274 0.5 L 99.73162607234548 0.5 L 99.73162607234548 3.5 L 106.73162607234548 0 L 99.73162607234548 -3.5 L 99.73162607234548 -0.5 L 79.58846928617274 -0.5 Z"/><text text-anchor="middle" pointer-events="none" font-size="8px" fill="#000000" x="62.36581303617274" y="3" transform="rotate(180 62.36581303617274 0)" font-family="sans-serif">ORIGIN</text></g><g class="relationship" transform="translate(155.162119335183 216.64419218196755) rotate(409.0383692570251)"><path class="outline" fill="#A5ABB6" stroke="none" d="M 25 0.5 L 47.80416930000838 0.5 L 47.80416930000838 -0.5 L 25 -0.5 Z M 106.99166930000838 0.5 L 129.79583860001676 0.5 L 129.79583860001676 3.5 L 136.79583860001676 0 L 129.79583860001676 -3.5 L 129.79583860001676 -0.5 L 106.99166930000838 -0.5 Z"/><text text-anchor="middle" pointer-events="none" font-size="8px" fill="#000000" x="77.39791930000838" y="3" font-family="sans-serif">DESTINATION</text></g><g class="relationship" transform="translate(-7.351827957370006 294.3165053919742) rotate(292.3511689916445)"><path class="outline" fill="#A5ABB6" stroke="none" d="M 25 0.5 L 72.40492791662096 0.5 L 72.40492791662096 -0.5 L 25 -0.5 Z M 106.85024041662096 0.5 L 154.25516833324193 0.5 L 154.25516833324193 3.5 L 161.25516833324193 0 L 154.25516833324193 -3.5 L 154.25516833324193 -0.5 L 106.85024041662096 -0.5 Z"/><text text-anchor="middle" pointer-events="none" font-size="8px" fill="#000000" x="89.62758416662096" y="3" font-family="sans-serif">ORIGIN</text></g><g class="relationship" transform="translate(-7.351827957370006 294.3165053919742) rotate(470.2656551309495)"><path class="outline" fill="#A5ABB6" stroke="none" d="M 25 0.5 L 27.751040083904385 0.5 L 27.751040083904385 -0.5 L 25 -0.5 Z M 65.30963383390439 0.5 L 68.06067391780877 0.5 L 68.06067391780877 3.5 L 75.06067391780877 0 L 68.06067391780877 -3.5 L 68.06067391780877 -0.5 L 65.30963383390439 -0.5 Z"/><text text-anchor="middle" pointer-events="none" font-size="8px" fill="#000000" x="46.530336958904385" y="3" transform="rotate(180 46.530336958904385 0)" font-family="sans-serif">DESTI…</text></g><g class="relationship" transform="translate(-49.93878554447922 44.78618643517721) rotate(394.2658293902243)"><path class="outline" fill="#A5ABB6" stroke="none" d="M 25 0.5 L 47.89532581971797 0.5 L 47.89532581971797 -0.5 L 25 -0.5 Z M 82.34063831971797 0.5 L 105.23596413943594 0.5 L 105.23596413943594 3.5 L 112.23596413943594 0 L 105.23596413943594 -3.5 L 105.23596413943594 -0.5 L 82.34063831971797 -0.5 Z"/><text text-anchor="middle" pointer-events="none" font-size="8px" fill="#000000" x="65.11798206971797" y="3" font-family="sans-serif">ORIGIN</text></g><g class="relationship" transform="translate(-49.93878554447922 44.78618643517721) rotate(241.9440920142219)"><path class="outline" fill="#A5ABB6" stroke="none" d="M 25 0.5 L 42.79590941680546 0.5 L 42.79590941680546 -0.5 L 25 -0.5 Z M 101.98340941680546 0.5 L 119.77931883361092 0.5 L 119.77931883361092 3.5 L 126.77931883361092 0 L 119.77931883361092 -3.5 L 119.77931883361092 -0.5 L 101.98340941680546 -0.5 Z"/><text text-anchor="middle" pointer-events="none" font-size="8px" fill="#000000" x="72.38965941680546" y="3" transform="rotate(180 72.38965941680546 0)" font-family="sans-serif">DESTINATION</text></g><g class="relationship" transform="translate(52.024983824583636 287.34086604160376) rotate(273.9637042926836)"><path class="outline" fill="#A5ABB6" stroke="none" d="M 25 0.5 L 62.11862966331361 0.5 L 62.11862966331361 -0.5 L 25 -0.5 Z M 96.56394216331361 0.5 L 133.68257182662722 0.5 L 133.68257182662722 3.5 L 140.68257182662722 0 L 133.68257182662722 -3.5 L 133.68257182662722 -0.5 L 96.56394216331361 -0.5 Z"/><text text-anchor="middle" pointer-events="none" font-size="8px" fill="#000000" x="79.34128591331361" y="3" font-family="sans-serif">ORIGIN</text></g><g class="relationship" transform="translate(52.024983824583636 287.34086604160376) rotate(492.9994728546691)"><path class="outline" fill="#A5ABB6" stroke="none" d="M 25 0.5 L 35.84783392414117 0.5 L 35.84783392414117 -0.5 L 25 -0.5 Z M 95.03533392414117 0.5 L 105.88316784828234 0.5 L 105.88316784828234 3.5 L 112.88316784828234 0 L 105.88316784828234 -3.5 L 105.88316784828234 -0.5 L 95.03533392414117 -0.5 Z"/><text text-anchor="middle" pointer-events="none" font-size="8px" fill="#000000" x="65.44158392414117" y="3" transform="rotate(180 65.44158392414117 0)" font-family="sans-serif">DESTINATION</text></g><g class="relationship" transform="translate(132.77524511051644 279.611872578121) rotate(246.25893535674066)"><path class="outline" fill="#A5ABB6" stroke="none" d="M 25 0.5 L 65.33901063091132 0.5 L 65.33901063091132 -0.5 L 25 -0.5 Z M 99.78432313091132 0.5 L 140.12333376182264 0.5 L 140.12333376182264 3.5 L 147.12333376182264 0 L 140.12333376182264 -3.5 L 140.12333376182264 -0.5 L 99.78432313091132 -0.5 Z"/><text text-anchor="middle" pointer-events="none" font-size="8px" fill="#000000" x="82.56166688091132" y="3" transform="rotate(180 82.56166688091132 0)" font-family="sans-serif">ORIGIN</text></g><g class="relationship" transform="translate(132.77524511051644 279.611872578121) rotate(384.74806513754197)"><path class="outline" fill="#A5ABB6" stroke="none" d="M 25 0.5 L 37.62786230397727 0.5 L 37.62786230397727 -0.5 L 25 -0.5 Z M 96.81536230397727 0.5 L 109.44322460795453 0.5 L 109.44322460795453 3.5 L 116.44322460795453 0 L 109.44322460795453 -3.5 L 109.44322460795453 -0.5 L 96.81536230397727 -0.5 Z"/><text text-anchor="middle" pointer-events="none" font-size="8px" fill="#000000" x="67.22161230397727" y="3" font-family="sans-serif">DESTINATION</text></g></g><g class="layer nodes"><g class="node" transform="translate(63.477712624088376,122.05460039883933)"><circle class="outline" cx="0" cy="0" r="25" fill="#ECB5C9" stroke="#da7298" stroke-width="2px"/><text text-anchor="middle" pointer-events="none" font-family="sans-serif" dy="1.5625" font-size="25" fill="#2A2C34"/><text text-anchor="middle" pointer-events="none" x="0" y="5" font-size="10px" fill="#2A2C34" font-family="sans-serif"> LAX</text></g><g class="node" transform="translate(381.71017721702736,167.41739419054684)"><circle class="outline" cx="0" cy="0" r="25" fill="#ECB5C9" stroke="#da7298" stroke-width="2px"/><text text-anchor="middle" pointer-events="none" font-family="sans-serif" dy="1.5625" font-size="25" fill="#2A2C34"/><text text-anchor="middle" pointer-events="none" x="0" y="5" font-size="10px" fill="#2A2C34" font-family="sans-serif"> LAS</text></g><g class="node" transform="translate(348.5226066838498,7.973268892015677)"><circle class="outline" cx="0" cy="0" r="25" fill="#ECB5C9" stroke="#da7298" stroke-width="2px"/><text text-anchor="middle" pointer-events="none" font-family="sans-serif" dy="1.5625" font-size="25" fill="#2A2C34"/><text text-anchor="middle" pointer-events="none" x="0" y="5" font-size="10px" fill="#2A2C34" font-family="sans-serif"> TUS</text></g><g class="node" transform="translate(261.2279436762602,338.8241180909745)"><circle class="outline" cx="0" cy="0" r="25" fill="#ECB5C9" stroke="#da7298" stroke-width="2px"/><text text-anchor="middle" pointer-events="none" font-family="sans-serif" dy="1.5625" font-size="25" fill="#2A2C34"/><text text-anchor="middle" pointer-events="none" x="0" y="5" font-size="10px" fill="#2A2C34" font-family="sans-serif"> SMF</text></g><g class="node" transform="translate(-121.325592786604,-89.15740384584608)"><circle class="outline" cx="0" cy="0" r="25" fill="#ECB5C9" stroke="#da7298" stroke-width="2px"/><text text-anchor="middle" pointer-events="none" font-family="sans-serif" dy="1.5625" font-size="25" fill="#2A2C34"/><text text-anchor="middle" pointer-events="none" x="0" y="5" font-size="10px" fill="#2A2C34" font-family="sans-serif"> ABQ</text></g><g class="node" transform="translate(265.025694865356,-123.93917312037394)"><circle class="outline" cx="0" cy="0" r="25" fill="#ECB5C9" stroke="#da7298" stroke-width="2px"/><text text-anchor="middle" pointer-events="none" font-family="sans-serif" dy="1.5625" font-size="25" fill="#2A2C34"/><text text-anchor="middle" pointer-events="none" x="0" y="5" font-size="10px" fill="#2A2C34" font-family="sans-serif"> BOS</text></g><g class="node" transform="translate(-42.01018274110646,388.18309640587387)"><circle class="outline" cx="0" cy="0" r="25" fill="#ECB5C9" stroke="#da7298" stroke-width="2px"/><text text-anchor="middle" pointer-events="none" font-family="sans-serif" dy="1.5625" font-size="25" fill="#2A2C34"/><text text-anchor="middle" pointer-events="none" x="0" y="5" font-size="10px" fill="#2A2C34" font-family="sans-serif"> FAT</text></g><g class="node" transform="translate(-231.0240793071166,221.72999591596607)"><circle class="outline" cx="0" cy="0" r="25" fill="#ECB5C9" stroke="#da7298" stroke-width="2px"/><text text-anchor="middle" pointer-events="none" font-family="sans-serif" dy="1.5625" font-size="25" fill="#2A2C34"/><text text-anchor="middle" pointer-events="none" x="0" y="5" font-size="10px" fill="#2A2C34" font-family="sans-serif"> EWR</text></g><g class="node" transform="translate(142.87036386516783,-195.0570053751655)"><circle class="outline" cx="0" cy="0" r="25" fill="#ECB5C9" stroke="#da7298" stroke-width="2px"/><text text-anchor="middle" pointer-events="none" font-family="sans-serif" dy="1.5625" font-size="25" fill="#2A2C34"/><text text-anchor="middle" pointer-events="none" x="0" y="5" font-size="10px" fill="#2A2C34" font-family="sans-serif"> IAH</text></g><g class="node" transform="translate(224.51211109982836,144.1267738362346)"><circle class="outline" cx="0" cy="0" r="25" fill="#4C8EDA" stroke="#2870c2" stroke-width="2px"/><text text-anchor="middle" pointer-events="none" font-family="sans-serif" dy="1.5625" font-size="25" fill="#FFFFFF"/><text text-anchor="middle" pointer-events="none" x="0" y="5" font-size="10px" fill="#FFFFFF" font-family="sans-serif"> 11/29/20…</text></g><g class="node" transform="translate(208.68747762309613,28.59628245035458)"><circle class="outline" cx="0" cy="0" r="25" fill="#4C8EDA" stroke="#2870c2" stroke-width="2px"/><text text-anchor="middle" pointer-events="none" font-family="sans-serif" dy="1.5625" font-size="25" fill="#FFFFFF"/><text text-anchor="middle" pointer-events="none" x="0" y="5" font-size="10px" fill="#FFFFFF" font-family="sans-serif"> 11/2/2015</text></g><g class="node" transform="translate(214.7504507096562,209.75017498562022)"><circle class="outline" cx="0" cy="0" r="25" fill="#4C8EDA" stroke="#2870c2" stroke-width="2px"/><text text-anchor="middle" pointer-events="none" font-family="sans-serif" dy="1.5625" font-size="25" fill="#FFFFFF"/><text text-anchor="middle" pointer-events="none" x="0" y="5" font-size="10px" fill="#FFFFFF" font-family="sans-serif"> 11/1/2015</text></g><g class="node" transform="translate(-14.971530667633845,-61.381880662998334)"><circle class="outline" cx="0" cy="0" r="25" fill="#4C8EDA" stroke="#2870c2" stroke-width="2px"/><text text-anchor="middle" pointer-events="none" font-family="sans-serif" dy="1.5625" font-size="25" fill="#FFFFFF"/><text text-anchor="middle" pointer-events="none" x="0" y="5" font-size="10px" fill="#FFFFFF" font-family="sans-serif"> 11/3/2015</text></g><g class="node" transform="translate(190.6215877673207,264.4829946544171)"><circle class="outline" cx="0" cy="0" r="25" fill="#4C8EDA" stroke="#2870c2" stroke-width="2px"/><text text-anchor="middle" pointer-events="none" font-family="sans-serif" dy="1.5625" font-size="25" fill="#FFFFFF"/><text text-anchor="middle" pointer-events="none" x="0" y="5" font-size="10px" fill="#FFFFFF" font-family="sans-serif"> 11/4/2015</text></g><g class="node" transform="translate(229.96043664267424,84.34409177656418)"><circle class="outline" cx="0" cy="0" r="25" fill="#4C8EDA" stroke="#2870c2" stroke-width="2px"/><text text-anchor="middle" pointer-events="none" font-family="sans-serif" dy="1.5625" font-size="25" fill="#FFFFFF"/><text text-anchor="middle" pointer-events="none" x="0" y="5" font-size="10px" fill="#FFFFFF" font-family="sans-serif"> 11/1/2015</text></g><g class="node" transform="translate(0.26801459937424765,12.231218985114584)"><circle class="outline" cx="0" cy="0" r="25" fill="#4C8EDA" stroke="#2870c2" stroke-width="2px"/><text text-anchor="middle" pointer-events="none" font-family="sans-serif" dy="1.5625" font-size="25" fill="#FFFFFF"/><text text-anchor="middle" pointer-events="none" x="0" y="5" font-size="10px" fill="#FFFFFF" font-family="sans-serif"> 11/4/2015</text></g><g class="node" transform="translate(-100.12677888649415,77.25145322696)"><circle class="outline" cx="0" cy="0" r="25" fill="#4C8EDA" stroke="#2870c2" stroke-width="2px"/><text text-anchor="middle" pointer-events="none" font-family="sans-serif" dy="1.5625" font-size="25" fill="#FFFFFF"/><text text-anchor="middle" pointer-events="none" x="0" y="5" font-size="10px" fill="#FFFFFF" font-family="sans-serif"> 11/1/2015</text></g><g class="node" transform="translate(158.78465876124693,-4.748873201005603)"><circle class="outline" cx="0" cy="0" r="25" fill="#4C8EDA" stroke="#2870c2" stroke-width="2px"/><text text-anchor="middle" pointer-events="none" font-family="sans-serif" dy="1.5625" font-size="25" fill="#FFFFFF"/><text text-anchor="middle" pointer-events="none" x="0" y="5" font-size="10px" fill="#FFFFFF" font-family="sans-serif"> 11/29/20…</text></g><g class="node" transform="translate(37.91925665568614,-34.24539641450873)"><circle class="outline" cx="0" cy="0" r="25" fill="#4C8EDA" stroke="#2870c2" stroke-width="2px"/><text text-anchor="middle" pointer-events="none" font-family="sans-serif" dy="1.5625" font-size="25" fill="#FFFFFF"/><text text-anchor="middle" pointer-events="none" x="0" y="5" font-size="10px" fill="#FFFFFF" font-family="sans-serif"> 11/2/2015</text></g><g class="node" transform="translate(-103.19646173053732,17.77384132559782)"><circle class="outline" cx="0" cy="0" r="25" fill="#4C8EDA" stroke="#2870c2" stroke-width="2px"/><text text-anchor="middle" pointer-events="none" font-family="sans-serif" dy="1.5625" font-size="25" fill="#FFFFFF"/><text text-anchor="middle" pointer-events="none" x="0" y="5" font-size="10px" fill="#FFFFFF" font-family="sans-serif"> 11/3/2015</text></g><g class="node" transform="translate(5.8379045515511985,236.30958735674986)"><circle class="outline" cx="0" cy="0" r="25" fill="#4C8EDA" stroke="#2870c2" stroke-width="2px"/><text text-anchor="middle" pointer-events="none" font-family="sans-serif" dy="1.5625" font-size="25" fill="#FFFFFF"/><text text-anchor="middle" pointer-events="none" x="0" y="5" font-size="10px" fill="#FFFFFF" font-family="sans-serif"> 11/4/2015</text></g><g class="node" transform="translate(-90.243333588621,172.26982379661763)"><circle class="outline" cx="0" cy="0" r="25" fill="#4C8EDA" stroke="#2870c2" stroke-width="2px"/><text text-anchor="middle" pointer-events="none" font-family="sans-serif" dy="1.5625" font-size="25" fill="#FFFFFF"/><text text-anchor="middle" pointer-events="none" x="0" y="5" font-size="10px" fill="#FFFFFF" font-family="sans-serif"> 11/29/20…</text></g><g class="node" transform="translate(111.08488432947185,-41.23593040456569)"><circle class="outline" cx="0" cy="0" r="25" fill="#4C8EDA" stroke="#2870c2" stroke-width="2px"/><text text-anchor="middle" pointer-events="none" font-family="sans-serif" dy="1.5625" font-size="25" fill="#FFFFFF"/><text text-anchor="middle" pointer-events="none" x="0" y="5" font-size="10px" fill="#FFFFFF" font-family="sans-serif"> 11/30/20…</text></g><g class="node" transform="translate(-52.741781648645876,-14.888880971311876)"><circle class="outline" cx="0" cy="0" r="25" fill="#4C8EDA" stroke="#2870c2" stroke-width="2px"/><text text-anchor="middle" pointer-events="none" font-family="sans-serif" dy="1.5625" font-size="25" fill="#FFFFFF"/><text text-anchor="middle" pointer-events="none" x="0" y="5" font-size="10px" fill="#FFFFFF" font-family="sans-serif"> 11/1/2015</text></g><g class="node" transform="translate(-52.11601381460043,251.58653814937233)"><circle class="outline" cx="0" cy="0" r="25" fill="#4C8EDA" stroke="#2870c2" stroke-width="2px"/><text text-anchor="middle" pointer-events="none" font-family="sans-serif" dy="1.5625" font-size="25" fill="#FFFFFF"/><text text-anchor="middle" pointer-events="none" x="0" y="5" font-size="10px" fill="#FFFFFF" font-family="sans-serif"> 11/2/2015</text></g><g class="node" transform="translate(155.162119335183,216.64419218196755)"><circle class="outline" cx="0" cy="0" r="25" fill="#4C8EDA" stroke="#2870c2" stroke-width="2px"/><text text-anchor="middle" pointer-events="none" font-family="sans-serif" dy="1.5625" font-size="25" fill="#FFFFFF"/><text text-anchor="middle" pointer-events="none" x="0" y="5" font-size="10px" fill="#FFFFFF" font-family="sans-serif"> 11/2/2015</text></g><g class="node" transform="translate(-7.351827957370006,294.3165053919742)"><circle class="outline" cx="0" cy="0" r="25" fill="#4C8EDA" stroke="#2870c2" stroke-width="2px"/><text text-anchor="middle" pointer-events="none" font-family="sans-serif" dy="1.5625" font-size="25" fill="#FFFFFF"/><text text-anchor="middle" pointer-events="none" x="0" y="5" font-size="10px" fill="#FFFFFF" font-family="sans-serif"> 11/1/2015</text></g><g class="node" transform="translate(-49.93878554447922,44.78618643517721)"><circle class="outline" cx="0" cy="0" r="25" fill="#4C8EDA" stroke="#2870c2" stroke-width="2px"/><text text-anchor="middle" pointer-events="none" font-family="sans-serif" dy="1.5625" font-size="25" fill="#FFFFFF"/><text text-anchor="middle" pointer-events="none" x="0" y="5" font-size="10px" fill="#FFFFFF" font-family="sans-serif"> 11/2/2015</text></g><g class="node" transform="translate(52.024983824583636,287.34086604160376)"><circle class="outline" cx="0" cy="0" r="25" fill="#4C8EDA" stroke="#2870c2" stroke-width="2px"/><text text-anchor="middle" pointer-events="none" font-family="sans-serif" dy="1.5625" font-size="25" fill="#FFFFFF"/><text text-anchor="middle" pointer-events="none" x="0" y="5" font-size="10px" fill="#FFFFFF" font-family="sans-serif"> 11/3/2015</text></g><g class="node" transform="translate(132.77524511051644,279.611872578121)"><circle class="outline" cx="0" cy="0" r="25" fill="#4C8EDA" stroke="#2870c2" stroke-width="2px"/><text text-anchor="middle" pointer-events="none" font-family="sans-serif" dy="1.5625" font-size="25" fill="#FFFFFF"/><text text-anchor="middle" pointer-events="none" x="0" y="5" font-size="10px" fill="#FFFFFF" font-family="sans-serif"> 11/3/2015</text></g></g></svg>