<svg xmlns="http://www.w3.org/2000/svg" width="386.53985595703125" height="354.50701904296875" viewBox="-74.07070922851562 -76.51463317871094 386.53985595703125 354.50701904296875"><title>Neo4j Graph Visualization</title><desc>Created using Neo4j (http://www.neo4j.com/)</desc><g class="layer relationships"><g class="relationship" transform="translate(26.33065066946363 -45.87394083666523) rotate(386.14061979981136)"><path class="outline" fill="#A5ABB6" stroke="none" d="M 24.018736134675446,-6.953439040707552 L 24.277555179777966,-5.987513214418485 A 174.88971099416963 174.88971099416963 0 0 1 57.77950320294944,-11.550711052733163 L 57.71224458660358,-12.54844662818752 A 175.88971099416963 175.88971099416963 0 0 0 24.018736134675446,-6.953439040707552 Z M 77.0920471570864,-12.784633153619723 L 77.04912421442609,-11.785554767809401 A 174.88971099416963 174.88971099416963 0 0 1 110.67670173081274,-7.040481331610629 L 109.97109660997222,-4.124641587481394 L 117.59792865392104,-5.880042673670966 L 111.6175085586001,-10.928267657116276 L 110.91190343775958,-8.012427912987041 A 175.88971099416963 175.88971099416963 0 0 0 77.0920471570864,-12.784633153619723"/><text text-anchor="middle" pointer-events="none" font-size="8px" fill="#000000" x="67.40498340606784" y="-9.433711820271526" font-family="sans-serif">trek</text></g><g class="relationship" transform="translate(153.71341546659656 16.642252194365664) rotate(377.8551402359603)"><path class="outline" fill="#A5ABB6" stroke="none" d="M 21.40063509461097,-12.933012701892217 L 21.90063509461097,-12.06698729810778 A 89.59353880885585 89.59353880885585 0 0 1 54.91542243090264,-23.292173204120346 L 54.78391761230994,-24.283488735465895 A 90.59353880885585 90.59353880885585 0 0 0 21.40063509461097,-12.933012701892217 Z M 74.18401011377227,-24.760370813233934 L 74.10137060423142,-23.763791307392665 A 89.59353880885585 89.59353880885585 0 0 1 107.62781292644694,-14.174284192829097 L 106.25727631281686,-11.505646077478984 L 114.08305796453554,-11.421138446917272 L 109.4551950779537,-17.732468346629247 L 108.08465846432362,-15.063830231279136 A 90.59353880885585 90.59353880885585 0 0 0 74.18401011377227,-24.760370813233934"/><text text-anchor="middle" pointer-events="none" font-size="8px" fill="#000000" x="64.48344498169114" y="-21.54303844388471" font-family="sans-serif">trek</text></g><g class="relationship" transform="translate(283.4691561870294 58.44005207113723) rotate(537.9560105515225)"><path class="outline" fill="#A5ABB6" stroke="none" d="M 21.40063509461097,12.933012701892217 L 21.90063509461097,12.06698729810778 A 41.90561546528667 41.90561546528667 0 0 0 30.63349484872087,15.859989337024246 L 30.341888393527384,16.816527718527823 A 42.90561546528667 42.90561546528667 0 0 1 21.40063509461097,12.933012701892217 Z M 52.349392233822456,17.617251292584157 L 52.12807040208574,16.64205046875518 A 41.90561546528667 41.90561546528667 0 0 0 61.11348468873283,13.49371216903333 L 59.80625831880125,10.793497507611855 L 67.6318566270382,10.89355308276321 L 62.85645318197495,17.093998384261962 L 61.549226812043365,14.393783722840489 A 42.90561546528667 42.90561546528667 0 0 1 52.349392233822456,17.617251292584157"/><text text-anchor="middle" pointer-events="none" font-size="8px" fill="#000000" x="41.31157222192703" y="21.15323468667146" transform="rotate(180 41.31157222192703 18.15323468667146)" font-family="sans-serif">road</text></g><g class="relationship" transform="translate(193.39285932739332 61.654828916588116) rotate(464.1329151935133)"><path class="outline" fill="#A5ABB6" stroke="none" d="M 25 0.5 L 50.81216542618103 0.5 L 50.81216542618103 -0.5 L 25 -0.5 Z M 70.14810292618102 0.5 L 95.96026835236206 0.5 L 95.96026835236206 3.5 L 102.96026835236206 0 L 95.96026835236206 -3.5 L 95.96026835236206 -0.5 L 70.14810292618102 -0.5 Z"/><text text-anchor="middle" pointer-events="none" font-size="8px" fill="#000000" x="60.48013417618103" y="3" transform="rotate(180 60.48013417618103 0)" font-family="sans-serif">trek</text></g><g class="relationship" transform="translate(26.33065066946363 -45.87394083666523) rotate(386.14061979981136)"><path class="outline" fill="#A5ABB6" stroke="none" d="M 24.018736134675446,6.953439040707552 L 24.277555179777966,5.987513214418485 A 174.88971099416963 174.88971099416963 0 0 0 56.44880267933773,11.455907088828042 L 56.373935264760995,12.453100585715475 A 175.88971099416963 175.88971099416963 0 0 1 24.018736134675446,6.953439040707552 Z M 78.43228264946285,12.721931210105026 L 78.38173995755852,11.723209308725558 A 174.88971099416963 174.88971099416963 0 0 0 110.67670173081274,7.040481331610629 L 109.97109660997222,4.124641587481394 L 117.59792865392104,5.880042673670966 L 111.6175085586001,10.928267657116276 L 110.91190343775958,8.012427912987041 A 175.88971099416963 175.88971099416963 0 0 1 78.43228264946285,12.721931210105026"/><text text-anchor="middle" pointer-events="none" font-size="8px" fill="#000000" x="67.40498340606787" y="15.433711820271526" font-family="sans-serif">road</text></g><g class="relationship" transform="translate(153.71341546659656 16.642252194365664) rotate(377.8551402359603)"><path class="outline" fill="#A5ABB6" stroke="none" d="M 25 0.5 L 41.42843258789321 0.5 L 41.42843258789321 -0.5 L 25 -0.5 Z M 87.89327633789321 0.5 L 104.32170892578642 0.5 L 104.32170892578642 3.5 L 111.32170892578642 0 L 104.32170892578642 -3.5 L 104.32170892578642 -0.5 L 87.89327633789321 -0.5 Z"/><text text-anchor="middle" pointer-events="none" font-size="8px" fill="#000000" x="64.66085446289321" y="3" font-family="sans-serif">twowheeler</text></g><g class="relationship" transform="translate(153.71341546659656 16.642252194365664) rotate(377.8551402359603)"><path class="outline" fill="#A5ABB6" stroke="none" d="M 21.40063509461097,12.933012701892217 L 21.90063509461097,12.06698729810778 A 89.59353880885585 89.59353880885585 0 0 0 53.5978587513429,23.10742424765263 L 53.451647920496676,24.09667769998083 A 90.59353880885585 90.59353880885585 0 0 1 21.40063509461097,12.933012701892217 Z M 75.52384935813417,24.6392440450486 L 75.42642028123589,23.64400157460497 A 89.59353880885585 89.59353880885585 0 0 0 107.62781292644694,14.174284192829097 L 106.25727631281686,11.505646077478984 L 114.08305796453554,11.421138446917272 L 109.4551950779537,17.732468346629247 L 108.08465846432362,15.063830231279136 A 90.59353880885585 90.59353880885585 0 0 1 75.52384935813417,24.6392440450486"/><text text-anchor="middle" pointer-events="none" font-size="8px" fill="#000000" x="64.48344498169115" y="27.54303844388471" font-family="sans-serif">road</text></g><g class="relationship" transform="translate(283.4691561870294 58.44005207113723) rotate(537.9560105515225)"><path class="outline" fill="#A5ABB6" stroke="none" d="M 25 0.5 L 31.898853986108577 0.5 L 31.898853986108577 -0.5 L 25 -0.5 Z M 51.23479148610858 0.5 L 58.133645472217154 0.5 L 58.133645472217154 3.5 L 65.13364547221715 0 L 58.133645472217154 -3.5 L 58.133645472217154 -0.5 L 51.23479148610858 -0.5 Z"/><text text-anchor="middle" pointer-events="none" font-size="8px" fill="#000000" x="41.56682273610858" y="3" transform="rotate(180 41.56682273610858 0)" font-family="sans-serif">trek</text></g><g class="relationship" transform="translate(283.4691561870294 58.44005207113723) rotate(537.9560105515225)"><path class="outline" fill="#A5ABB6" stroke="none" d="M 21.40063509461097,-12.933012701892217 L 21.90063509461097,-12.06698729810778 A 41.90561546528667 41.90561546528667 0 0 1 21.98526157448923,-12.115715037331633 L 21.487281028897396,-12.982903238480645 A 42.90561546528667 42.90561546528667 0 0 0 21.40063509461097,-12.933012701892217 Z M 61.459184332421,-14.437245607669666 L 61.0255408267074,-13.53616108890774 A 41.90561546528667 41.90561546528667 0 0 1 61.11348468873283,-13.49371216903333 L 59.80625831880125,-10.793497507611855 L 67.6318566270382,-10.89355308276321 L 62.85645318197495,-17.093998384261962 L 61.549226812043365,-14.393783722840489 A 42.90561546528667 42.90561546528667 0 0 0 61.459184332421,-14.437245607669666"/><text text-anchor="middle" pointer-events="none" font-size="8px" fill="#000000" x="41.31157222192704" y="-15.15323468667146" transform="rotate(180 41.31157222192704 -18.15323468667146)" font-family="sans-serif">twowhe…</text></g><g class="relationship" transform="translate(26.33065066946363 -45.87394083666523) rotate(358.87210435740064)"><path class="outline" fill="#A5ABB6" stroke="none" d="M 21.40063509461097,12.933012701892217 L 21.90063509461097,12.06698729810778 A 34.76224565964074 34.76224565964074 0 0 0 28.568120651152878,15.032102271449233 L 28.259923149237256,15.983424666756406 A 35.76224565964074 35.76224565964074 0 0 1 21.40063509461097,12.933012701892217 Z M 47.61045087383401,16.740888008537986 L 47.3775602151022,15.76838508253958 A 34.76224565964074 34.76224565964074 0 0 0 54.256423843625676,13.3335328011875 L 52.96410233489932,10.626153049825819 L 60.78903018159066,10.769345906052955 L 55.97951918859415,16.94337246966974 L 54.6871976798678,14.23599271830806 A 35.76224565964074 35.76224565964074 0 0 1 47.61045087383401,16.740888008537986"/><text text-anchor="middle" pointer-events="none" font-size="8px" fill="#000000" x="37.90249742898976" y="20.197260346603656" font-family="sans-serif">trek</text></g><g class="relationship" transform="translate(109.66502935985525 -47.514631068367706) rotate(412.5134942971181)"><path class="outline" fill="#A5ABB6" stroke="none" d="M 25 0.5 L 55.62214773572751 0.5 L 55.62214773572751 -0.5 L 25 -0.5 Z M 74.95808523572751 0.5 L 105.58023297145502 0.5 L 105.58023297145502 3.5 L 112.58023297145502 0 L 105.58023297145502 -3.5 L 105.58023297145502 -0.5 L 74.95808523572751 -0.5 Z"/><text text-anchor="middle" pointer-events="none" font-size="8px" fill="#000000" x="65.29011648572751" y="3" font-family="sans-serif">trek</text></g><g class="relationship" transform="translate(26.33065066946363 -45.87394083666523) rotate(358.87210435740064)"><path class="outline" fill="#A5ABB6" stroke="none" d="M 25 0.5 L 27.16940467980234 0.5 L 27.16940467980234 -0.5 L 25 -0.5 Z M 49.18112342980234 0.5 L 51.35052810960468 0.5 L 51.35052810960468 3.5 L 58.35052810960468 0 L 51.35052810960468 -3.5 L 51.35052810960468 -0.5 L 49.18112342980234 -0.5 Z"/><text text-anchor="middle" pointer-events="none" font-size="8px" fill="#000000" x="38.17526405480234" y="3" font-family="sans-serif">road</text></g><g class="relationship" transform="translate(26.33065066946363 -45.87394083666523) rotate(358.87210435740064)"><path class="outline" fill="#A5ABB6" stroke="none" d="M 21.40063509461097,-12.933012701892217 L 21.90063509461097,-12.06698729810778 A 34.76224565964074 34.76224565964074 0 0 1 22.92553485433738,-12.635892112288158 L 22.455017982952292,-13.518283110509465 A 35.76224565964074 35.76224565964074 0 0 0 21.40063509461097,-12.933012701892217 Z M 53.590291135434384,-14.73705235468794 L 53.19018949340717,-13.820581582624193 A 34.76224565964074 34.76224565964074 0 0 1 54.256423843625676,-13.3335328011875 L 52.96410233489932,-10.626153049825819 L 60.78903018159066,-10.769345906052955 L 55.97951918859415,-16.94337246966974 L 54.6871976798678,-14.23599271830806 A 35.76224565964074 35.76224565964074 0 0 0 53.590291135434384,-14.73705235468794"/><text text-anchor="middle" pointer-events="none" font-size="8px" fill="#000000" x="37.90249742898976" y="-14.197260346603656" font-family="sans-serif">Publi…</text></g><g class="relationship" transform="translate(109.66502935985525 -47.514631068367706) rotate(493.9731159952085)"><path class="outline" fill="#A5ABB6" stroke="none" d="M 24.018736134675446,-6.953439040707552 L 24.277555179777966,-5.987513214418485 A 177.6191177385857 177.6191177385857 0 0 1 58.47198806588201,-11.648886789003711 L 58.4056845186688,-12.646686287714232 A 178.6191177385857 178.6191177385857 0 0 0 24.018736134675446,-6.953439040707552 Z M 77.78496788503111,-12.880685364894674 L 77.74277641999862,-11.881575821211698 A 177.6191177385857 177.6191177385857 0 0 1 112.06393864043645,-7.047507659541155 L 111.35767728386647,-4.13182679630939 L 118.98490421407223,-5.885511304749829 L 113.00562044919643,-10.935082143850176 L 112.29935909262645,-8.01940128061841 A 178.6191177385857 178.6191177385857 0 0 0 77.78496788503111,-12.880685364894674"/><text text-anchor="middle" pointer-events="none" font-size="8px" fill="#000000" x="68.09818707632903" y="-9.526754561986564" transform="rotate(180 68.09818707632903 -12.526754561986564)" font-family="sans-serif">trek</text></g><g class="relationship" transform="translate(10.181190948486586 55.60068085455447) rotate(426.9389218800621)"><path class="outline" fill="#A5ABB6" stroke="none" d="M 24.018736134675446,-6.953439040707552 L 24.277555179777966,-5.987513214418485 A 115.89764597261176 115.89764597261176 0 0 1 29.566226720522568,-7.27231217139591 L 29.35303993564727,-8.249323632308489 A 116.89764597261176 116.89764597261176 0 0 0 24.018736134675446,-6.953439040707552 Z M 75.70287379406726,-8.955762959241767 L 75.51956128699548,-7.9727082686212185 A 115.89764597261176 115.89764597261176 0 0 1 80.84493159643795,-6.849682849033205 L 80.15714735025892,-3.9295881877751224 L 87.77311651373664,-5.73153538482517 L 81.76197725800998,-10.743142397377316 L 81.07419301183096,-7.823047736119233 A 116.89764597261176 116.89764597261176 0 0 0 75.70287379406726,-8.955762959241767"/><text text-anchor="middle" pointer-events="none" font-size="8px" fill="#000000" x="52.500208726670124" y="-7.423112374846227" font-family="sans-serif">twowheeler</text></g><g class="relationship" transform="translate(54.09496154350685 158.74918408665917) rotate(374.0259664281482)"><path class="outline" fill="#A5ABB6" stroke="none" d="M 24.018736134675446,6.953439040707552 L 24.277555179777966,5.987513214418485 A 114.4360167531926 114.4360167531926 0 0 0 42.533756571005796,9.321378025022 L 42.434469480170804,10.316436854234396 A 115.4360167531926 115.4360167531926 0 0 1 24.018736134675446,6.953439040707552 Z M 61.82934936926096,10.613877793444232 L 61.76062234773657,9.616242290611467 A 114.4360167531926 114.4360167531926 0 0 0 80.1104708609502,6.84376986431782 L 79.4232389253181,3.9235451697699246 L 87.03886713750065,5.726932796934222 L 81.02678010845968,10.73740279038168 L 80.33954817282758,7.817178095833785 A 115.4360167531926 115.4360167531926 0 0 1 61.82934936926096,10.613877793444232"/><text text-anchor="middle" pointer-events="none" font-size="8px" fill="#000000" x="52.133317967357776" y="13.373312148017845" font-family="sans-serif">trek</text></g><g class="relationship" transform="translate(109.66502935985525 -47.514631068367706) rotate(493.9731159952085)"><path class="outline" fill="#A5ABB6" stroke="none" d="M 24.018736134675446,6.953439040707552 L 24.277555179777966,5.987513214418485 A 177.6191177385857 177.6191177385857 0 0 0 45.022550926452354,10.239245663725342 L 44.88052671746205,11.229108848241594 A 178.6191177385857 178.6191177385857 0 0 1 24.018736134675446,6.953439040707552 Z M 91.34041102809309,11.790098119571837 L 91.22232934864974,10.79709423388968 A 177.6191177385857 177.6191177385857 0 0 0 112.06393864043645,7.047507659541155 L 111.35767728386647,4.13182679630939 L 118.98490421407223,5.885511304749829 L 113.00562044919643,10.935082143850176 L 112.29935909262645,8.01940128061841 A 178.6191177385857 178.6191177385857 0 0 1 91.34041102809309,11.790098119571837"/><text text-anchor="middle" pointer-events="none" font-size="8px" fill="#000000" x="68.09818707632905" y="15.526754561986564" transform="rotate(180 68.09818707632905 12.526754561986564)" font-family="sans-serif">twowheeler</text></g><g class="relationship" transform="translate(10.181190948486586 55.60068085455447) rotate(426.9389218800621)"><path class="outline" fill="#A5ABB6" stroke="none" d="M 24.018736134675446,6.953439040707552 L 24.277555179777966,5.987513214418485 A 115.89764597261176 115.89764597261176 0 0 0 42.89966036208783,9.37712608269868 L 42.801518481961644,10.372298515679674 A 116.89764597261176 116.89764597261176 0 0 1 24.018736134675446,6.953439040707552 Z M 62.19594255869679,10.667897933206774 L 62.12817498944639,9.670196797315924 A 115.89764597261176 115.89764597261176 0 0 0 80.84493159643795,6.849682849033205 L 80.15714735025892,3.9295881877751224 L 87.77311651373664,5.73153538482517 L 81.76197725800998,10.743142397377316 L 81.07419301183096,7.823047736119233 A 116.89764597261176 116.89764597261176 0 0 1 62.19594255869679,10.667897933206774"/><text text-anchor="middle" pointer-events="none" font-size="8px" fill="#000000" x="52.50020872667017" y="13.423112374846227" font-family="sans-serif">trek</text></g><g class="relationship" transform="translate(54.09496154350685 158.74918408665917) rotate(374.0259664281482)"><path class="outline" fill="#A5ABB6" stroke="none" d="M 24.018736134675446,-6.953439040707552 L 24.277555179777966,-5.987513214418485 A 114.4360167531926 114.4360167531926 0 0 1 29.205253082294515,-7.191491203299989 L 28.989494762672717,-8.167938000372914 A 115.4360167531926 115.4360167531926 0 0 0 24.018736134675446,-6.953439040707552 Z M 75.33388470018068,-8.87867810028321 L 75.14817048773655,-7.896074298491129 A 114.4360167531926 114.4360167531926 0 0 1 80.1104708609502,-6.84376986431782 L 79.4232389253181,-3.9235451697699246 L 87.03886713750065,-5.726932796934222 L 81.02678010845968,-10.73740279038168 L 80.33954817282758,-7.817178095833785 A 115.4360167531926 115.4360167531926 0 0 0 75.33388470018068,-8.87867810028321"/><text text-anchor="middle" pointer-events="none" font-size="8px" fill="#000000" x="52.13331796735774" y="-7.373312148017845" font-family="sans-serif">twowheeler</text></g><g class="relationship" transform="translate(109.66502935985525 -47.514631068367706) rotate(415.52755747931485)"><path class="outline" fill="#A5ABB6" stroke="none" d="M 25 0.5 L 25.74335989795469 0.5 L 25.74335989795469 -0.5 L 25 -0.5 Z M 45.07929739795469 0.5 L 45.82265729590938 0.5 L 45.82265729590938 3.5 L 52.82265729590938 0 L 45.82265729590938 -3.5 L 45.82265729590938 -0.5 L 45.07929739795469 -0.5 Z"/><text text-anchor="middle" pointer-events="none" font-size="8px" fill="#000000" x="35.41132864795469" y="3" font-family="sans-serif">trek</text></g><g class="relationship" transform="translate(10.181190948486586 55.60068085455447) rotate(475.84159209064205)"><path class="outline" fill="#A5ABB6" stroke="none" d="M 24.018736134675446,-6.953439040707552 L 24.277555179777966,-5.987513214418485 A 144.99565983967346 144.99565983967346 0 0 1 50.21549384872529,-10.464188114699368 L 50.1355624937621,-11.460988485131566 A 145.99565983967346 145.99565983967346 0 0 0 24.018736134675446,-6.953439040707552 Z M 69.52188880810175,-11.724042407918574 L 69.46903315874147,-10.725440244727082 A 144.99565983967346 144.99565983967346 0 0 1 95.51888828993285,-6.9541900275153985 L 94.82134268911172,-4.036411740055044 L 102.44329522747721,-5.812880006842807 L 96.4489490910277,-10.844561077462538 L 95.75140349020657,-7.926782790002184 A 145.99565983967346 145.99565983967346 0 0 0 69.52188880810175,-11.724042407918574"/><text text-anchor="middle" pointer-events="none" font-size="8px" fill="#000000" x="59.831138055208385" y="-8.414728109198848" transform="rotate(180 59.831138055208385 -11.414728109198848)" font-family="sans-serif">trek</text></g><g class="relationship" transform="translate(-45.070711779685944 169.68331223717877) rotate(353.70791404440297)"><path class="outline" fill="#A5ABB6" stroke="none" d="M 21.40063509461097,12.933012701892217 L 21.90063509461097,12.06698729810778 A 51.96605504059048 51.96605504059048 0 0 0 24.077444463086273,13.255431415605877 L 23.61933352637528,14.144326442966126 A 52.96605504059048 52.96605504059048 0 0 1 21.40063509461097,12.933012701892217 Z M 68.98420408715029,15.644645771420905 L 68.58582551324906,14.72742469018889 A 51.96605504059048 51.96605504059048 0 0 0 70.8364014113916,13.685404261503598 L 69.5113399585707,10.993896849987117 L 77.33742894706688,11.04217877350756 L 72.60315001515282,17.27408081019224 L 71.27808856233192,14.582573398675757 A 52.96605504059048 52.96605504059048 0 0 1 68.98420408715029,15.644645771420905"/><text text-anchor="middle" pointer-events="none" font-size="8px" fill="#000000" x="46.14943914944991" y="22.500449021557067" font-family="sans-serif">twowheeler</text></g><g class="relationship" transform="translate(10.181190948486586 55.60068085455447) rotate(475.84159209064205)"><path class="outline" fill="#A5ABB6" stroke="none" d="M 24.018736134675446,6.953439040707552 L 24.277555179777966,5.987513214418485 A 144.99565983967346 144.99565983967346 0 0 0 36.81074904890367,8.757595451331099 L 36.63836841087475,9.742625864888339 A 145.99565983967346 145.99565983967346 0 0 1 24.018736134675446,6.953439040707552 Z M 83.06073812005351,10.372533061283548 L 82.91514786935768,9.383188086614808 A 144.99565983967346 144.99565983967346 0 0 0 95.51888828993285,6.9541900275153985 L 94.82134268911172,4.036411740055044 L 102.44329522747721,5.812880006842807 L 96.4489490910277,10.844561077462538 L 95.75140349020657,7.926782790002184 A 145.99565983967346 145.99565983967346 0 0 1 83.06073812005351,10.372533061283548"/><text text-anchor="middle" pointer-events="none" font-size="8px" fill="#000000" x="59.83113805520838" y="14.414728109198848" transform="rotate(180 59.83113805520838 11.414728109198848)" font-family="sans-serif">twowheeler</text></g><g class="relationship" transform="translate(-45.070711779685944 169.68331223717877) rotate(353.70791404440297)"><path class="outline" fill="#A5ABB6" stroke="none" d="M 25 0.5 L 36.715359938185436 0.5 L 36.715359938185436 -0.5 L 25 -0.5 Z M 56.051297438185436 0.5 L 67.76665737637087 0.5 L 67.76665737637087 3.5 L 74.76665737637087 0 L 67.76665737637087 -3.5 L 67.76665737637087 -0.5 L 56.051297438185436 -0.5 Z"/><text text-anchor="middle" pointer-events="none" font-size="8px" fill="#000000" x="46.383328688185436" y="3" font-family="sans-serif">trek</text></g><g class="relationship" transform="translate(-45.070711779685944 169.68331223717877) rotate(353.70791404440297)"><path class="outline" fill="#A5ABB6" stroke="none" d="M 21.40063509461097,-12.933012701892217 L 21.90063509461097,-12.06698729810778 A 51.96605504059048 51.96605504059048 0 0 1 35.388331641818354,-17.50449072210531 L 35.1478798514462,-18.475151804310023 A 52.96605504059048 52.96605504059048 0 0 0 21.40063509461097,-12.933012701892217 Z M 57.19470199746634,-19.204290298210623 L 57.01890941907959,-18.219863069115377 A 51.96605504059048 51.96605504059048 0 0 1 70.8364014113916,-13.685404261503598 L 69.5113399585707,-10.993896849987117 L 77.33742894706688,-11.04217877350756 L 72.60315001515282,-17.27408081019224 L 71.27808856233192,-14.582573398675757 A 52.96605504059048 52.96605504059048 0 0 0 57.19470199746634,-19.204290298210623"/><text text-anchor="middle" pointer-events="none" font-size="8px" fill="#000000" x="46.149439149449904" y="-16.500449021557067" font-family="sans-serif">road</text></g><g class="relationship" transform="translate(-45.070711779685944 169.68331223717877) rotate(398.66747016880686)"><path class="outline" fill="#A5ABB6" stroke="none" d="M 25 0.5 L 50.29965623663677 0.5 L 50.29965623663677 -0.5 L 25 -0.5 Z M 69.63559373663676 0.5 L 94.93524997327354 0.5 L 94.93524997327354 3.5 L 101.93524997327354 0 L 94.93524997327354 -3.5 L 94.93524997327354 -0.5 L 69.63559373663676 -0.5 Z"/><text text-anchor="middle" pointer-events="none" font-size="8px" fill="#000000" x="59.96762498663677" y="3" font-family="sans-serif">trek</text></g><g class="relationship" transform="translate(54.03846097261748 248.9923884020889) rotate(329.66999031494214)"><path class="outline" fill="#A5ABB6" stroke="none" d="M 25 0.5 L 49.45870284750787 0.5 L 49.45870284750787 -0.5 L 25 -0.5 Z M 68.79464034750788 0.5 L 93.25334319501574 0.5 L 93.25334319501574 3.5 L 100.25334319501574 0 L 93.25334319501574 -3.5 L 93.25334319501574 -0.5 L 68.79464034750788 -0.5 Z"/><text text-anchor="middle" pointer-events="none" font-size="8px" fill="#000000" x="59.12667159750787" y="3" font-family="sans-serif">trek</text></g></g><g class="layer nodes"><g class="node" transform="translate(26.33065066946363,-45.87394083666523)"><circle class="outline" cx="0" cy="0" r="25" fill="#F16667" stroke="#eb2728" stroke-width="2px"/><text text-anchor="middle" pointer-events="none" font-family="sans-serif" dy="1.5625" font-size="25" fill="#FFFFFF"/><text text-anchor="middle" pointer-events="none" x="0" y="5" font-size="10px" fill="#FFFFFF" font-family="sans-serif"> Darjeeling</text></g><g class="node" transform="translate(162.1485264902486,185.74198353933798)"><circle class="outline" cx="0" cy="0" r="25" fill="#D9C8AE" stroke="#c0a378" stroke-width="2px"/><text text-anchor="middle" pointer-events="none" font-family="sans-serif" dy="1.5625" font-size="25" fill="#2A2C34"/><text text-anchor="middle" pointer-events="none" x="0" y="5" font-size="10px" fill="#2A2C34" font-family="sans-serif"> Sandak…</text></g><g class="node" transform="translate(153.71341546659656,16.642252194365664)"><circle class="outline" cx="0" cy="0" r="25" fill="#8DCC93" stroke="#5db665" stroke-width="2px"/><text text-anchor="middle" pointer-events="none" font-family="sans-serif" dy="1.5625" font-size="25" fill="#2A2C34"/><text text-anchor="middle" pointer-events="none" x="0" y="5" font-size="10px" fill="#2A2C34" font-family="sans-serif"> Tumbling</text></g><g class="node" transform="translate(283.4691561870294,58.44005207113723)"><circle class="outline" cx="0" cy="0" r="25" fill="#8DCC93" stroke="#5db665" stroke-width="2px"/><text text-anchor="middle" pointer-events="none" font-family="sans-serif" dy="1.5625" font-size="25" fill="#2A2C34"/><text text-anchor="middle" pointer-events="none" x="0" y="5" font-size="10px" fill="#2A2C34" font-family="sans-serif"> Gairibus</text></g><g class="node" transform="translate(193.39285932739332,61.654828916588116)"><circle class="outline" cx="0" cy="0" r="25" fill="#8DCC93" stroke="#5db665" stroke-width="2px"/><text text-anchor="middle" pointer-events="none" font-family="sans-serif" dy="1.5625" font-size="25" fill="#2A2C34"/><text text-anchor="middle" pointer-events="none" x="0" y="5" font-size="10px" fill="#2A2C34" font-family="sans-serif"> BhikeBh…</text></g><g class="node" transform="translate(109.66502935985525,-47.514631068367706)"><circle class="outline" cx="0" cy="0" r="25" fill="#F16667" stroke="#eb2728" stroke-width="2px"/><text text-anchor="middle" pointer-events="none" font-family="sans-serif" dy="1.5625" font-size="25" fill="#FFFFFF"/><text text-anchor="middle" pointer-events="none" x="0" y="5" font-size="10px" fill="#FFFFFF" font-family="sans-serif"> Rimbik</text></g><g class="node" transform="translate(10.181190948486586,55.60068085455447)"><circle class="outline" cx="0" cy="0" r="25" fill="#8DCC93" stroke="#5db665" stroke-width="2px"/><text text-anchor="middle" pointer-events="none" font-family="sans-serif" dy="1.5625" font-size="25" fill="#2A2C34"/><text text-anchor="middle" pointer-events="none" x="0" y="5" font-size="10px" fill="#2A2C34" font-family="sans-serif"> Sirikhola</text></g><g class="node" transform="translate(54.09496154350685,158.74918408665917)"><circle class="outline" cx="0" cy="0" r="25" fill="#8DCC93" stroke="#5db665" stroke-width="2px"/><text text-anchor="middle" pointer-events="none" font-family="sans-serif" dy="1.5625" font-size="25" fill="#2A2C34"/><text text-anchor="middle" pointer-events="none" x="0" y="5" font-size="10px" fill="#2A2C34" font-family="sans-serif"> Gurdum</text></g><g class="node" transform="translate(-45.070711779685944,169.68331223717877)"><circle class="outline" cx="0" cy="0" r="25" fill="#8DCC93" stroke="#5db665" stroke-width="2px"/><text text-anchor="middle" pointer-events="none" font-family="sans-serif" dy="1.5625" font-size="25" fill="#2A2C34"/><text text-anchor="middle" pointer-events="none" x="0" y="5" font-size="10px" fill="#2A2C34" font-family="sans-serif"> Rammam</text></g><g class="node" transform="translate(54.03846097261748,248.9923884020889)"><circle class="outline" cx="0" cy="0" r="25" fill="#D9C8AE" stroke="#c0a378" stroke-width="2px"/><text text-anchor="middle" pointer-events="none" font-family="sans-serif" dy="1.5625" font-size="25" fill="#2A2C34"/><text text-anchor="middle" pointer-events="none" x="0" y="5" font-size="10px" fill="#2A2C34" font-family="sans-serif"> Sabargr…</text></g></g></svg>